<?xml version="1.0" encoding="UTF-8"?>
<svg xmlns="http://www.w3.org/2000/svg" xmlns:xlink="http://www.w3.org/1999/xlink" width="425.2pt" height="425.2pt" viewBox="0 0 425.2 425.2" version="1.1">
<g id="surface1">
<path style=" stroke:none;fill-rule:nonzero;fill:rgb(0%,0%,0%);fill-opacity:1;" d="M 164.308594 207.335938 C 156.523438 207.335938 151.089844 212.773438 151.089844 220.558594 C 151.089844 228.34375 156.523438 233.777344 164.308594 233.777344 C 172.09375 233.777344 177.527344 228.34375 177.527344 220.558594 C 177.527344 212.773438 172.09375 207.335938 164.308594 207.335938 M 164.308594 194.851562 C 178.996094 194.851562 190.015625 205.867188 190.015625 220.558594 C 190.015625 235.246094 178.996094 246.261719 164.308594 246.261719 C 149.621094 246.261719 138.601562 235.246094 138.601562 220.558594 C 138.601562 205.867188 149.621094 194.851562 164.308594 194.851562 "/>
<path style=" stroke:none;fill-rule:nonzero;fill:rgb(0%,0%,0%);fill-opacity:1;" d="M 265.398438 245.761719 L 253.15625 245.761719 L 253.15625 195.355469 L 265.398438 195.355469 Z M 265.398438 245.761719 "/>
<path style=" stroke:none;fill-rule:nonzero;fill:rgb(0%,0%,0%);fill-opacity:1;" d="M 265.398438 178.9375 L 253.15625 178.9375 L 259.277344 185.058594 L 265.398438 191.175781 Z M 265.398438 178.9375 "/>
<path style=" stroke:none;fill-rule:nonzero;fill:rgb(0%,0%,0%);fill-opacity:1;" d="M 98.941406 207.597656 L 132.421875 207.597656 L 132.421875 195.355469 L 98.941406 195.355469 Z M 98.941406 207.597656 "/>
<path style=" stroke:none;fill-rule:nonzero;fill:rgb(0%,0%,0%);fill-opacity:1;" d="M 98.941406 214.4375 L 98.941406 245.761719 L 132.421875 245.761719 L 132.421875 233.519531 L 111.179688 233.519531 L 111.179688 226.679688 L 132.421875 226.679688 L 132.421875 214.4375 Z M 98.941406 214.4375 "/>
<path style=" stroke:none;fill-rule:nonzero;fill:rgb(0%,0%,0%);fill-opacity:1;" d="M 196.707031 245.761719 L 208.945312 245.761719 L 208.945312 220.558594 L 196.707031 220.558594 Z M 196.707031 245.761719 "/>
<path style=" stroke:none;fill-rule:nonzero;fill:rgb(0%,0%,0%);fill-opacity:1;" d="M 230.839844 195.355469 L 230.839844 224.375 L 207.707031 195.355469 L 191.914062 195.355469 L 212.351562 219.796875 L 232.929688 245.757812 L 243.082031 245.757812 L 243.082031 195.355469 Z M 230.839844 195.355469 "/>
<path style=" stroke:none;fill-rule:nonzero;fill:rgb(0%,0%,0%);fill-opacity:1;" d="M 297.960938 210.765625 L 310.417969 195.355469 L 326.261719 195.355469 L 305.882812 220.558594 L 326.261719 245.761719 L 310.417969 245.761719 L 297.960938 230.351562 L 285.503906 245.761719 L 269.664062 245.761719 Z M 297.960938 210.765625 "/>
<path style=" stroke:none;fill-rule:nonzero;fill:rgb(0%,0%,0%);fill-opacity:1;" d="M 282.140625 210.765625 L 297.960938 210.765625 L 285.503906 195.355469 L 269.664062 195.355469 "/>
</g>
</svg>
